<svg xmlns="http://www.w3.org/2000/svg" width="1060.5157470703125" height="632.536376953125" viewBox="-478.3431396484375 -200.320556640625 1060.5157470703125 632.536376953125"><title>Neo4j Graph Visualization</title><desc>Created using Neo4j (http://www.neo4j.com/)</desc><g class="layer relationships"><g class="relationship" transform="translate(236.13757257470493 360.08625196838796) rotate(538.2912945969744)"><path class="outline" fill="#A5ABB6" stroke="none" d="M 40 0.5 L 70.65365556293608 0.5 L 70.65365556293608 -0.5 L 40 -0.5 Z M 93.93881181293608 0.5 L 124.59246737587216 0.5 L 124.59246737587216 3.5 L 131.59246737587216 0 L 124.59246737587216 -3.5 L 124.59246737587216 -0.5 L 93.93881181293608 -0.5 Z"/><text text-anchor="middle" pointer-events="none" font-size="8px" fill="#000000" x="82.29623368793608" y="3" transform="rotate(180 82.29623368793608 0)" font-family="sans-serif">ping</text></g><g class="relationship" transform="translate(146.5118768907668 191.48264143841078) rotate(293.06627866411793)"><path class="outline" fill="#A5ABB6" stroke="none" d="M 40 0.5 L 57.20485794931402 0.5 L 57.20485794931402 -0.5 L 40 -0.5 Z M 100.63845169931402 0.5 L 117.84330964862804 0.5 L 117.84330964862804 3.5 L 124.84330964862804 0 L 117.84330964862804 -3.5 L 117.84330964862804 -0.5 L 100.63845169931402 -0.5 Z"/><text text-anchor="middle" pointer-events="none" font-size="8px" fill="#000000" x="78.92165482431402" y="3" font-family="sans-serif">beinclude</text></g><g class="relationship" transform="translate(146.5118768907668 191.48264143841078) rotate(422.0059437572802)"><path class="outline" fill="#A5ABB6" stroke="none" d="M 40 0.5 L 80.32985613035734 0.5 L 80.32985613035734 -0.5 L 40 -0.5 Z M 103.61501238035734 0.5 L 143.94486851071468 0.5 L 143.94486851071468 3.5 L 150.94486851071468 0 L 143.94486851071468 -3.5 L 143.94486851071468 -0.5 L 103.61501238035734 -0.5 Z"/><text text-anchor="middle" pointer-events="none" font-size="8px" fill="#000000" x="91.97243425535734" y="3" font-family="sans-serif">ping</text></g><g class="relationship" transform="translate(146.5118768907668 191.48264143841078) rotate(460.91186068782963)"><path class="outline" fill="#A5ABB6" stroke="none" d="M 40 0.5 L 41.46814334589922 0.5 L 41.46814334589922 -0.5 L 40 -0.5 Z M 61.21423709589922 0.5 L 62.68238044179844 0.5 L 62.68238044179844 3.5 L 69.68238044179844 0 L 62.68238044179844 -3.5 L 62.68238044179844 -0.5 L 61.21423709589922 -0.5 Z"/><text text-anchor="middle" pointer-events="none" font-size="8px" fill="#000000" x="51.34119022089922" y="3" transform="rotate(180 51.34119022089922 0)" font-family="sans-serif">pi…</text></g><g class="relationship" transform="translate(64.62140530740392 365.2028158617615) rotate(206.33475880752974)"><path class="outline" fill="#A5ABB6" stroke="none" d="M 40 0.5 L 71.79377736865096 0.5 L 71.79377736865096 -0.5 L 40 -0.5 Z M 95.07893361865096 0.5 L 126.87271098730193 0.5 L 126.87271098730193 3.5 L 133.87271098730193 0 L 126.87271098730193 -3.5 L 126.87271098730193 -0.5 L 95.07893361865096 -0.5 Z"/><text text-anchor="middle" pointer-events="none" font-size="8px" fill="#000000" x="83.43635549365096" y="3" transform="rotate(180 83.43635549365096 0)" font-family="sans-serif">ping</text></g><g class="relationship" transform="translate(235.3236747740989 205.02097835318884) rotate(261.65707381031086)"><path class="outline" fill="#A5ABB6" stroke="none" d="M 40 0.5 L 58.268090912779 0.5 L 58.268090912779 -0.5 L 40 -0.5 Z M 101.701684662779 0.5 L 119.969775575558 0.5 L 119.969775575558 3.5 L 126.969775575558 0 L 119.969775575558 -3.5 L 119.969775575558 -0.5 L 101.701684662779 -0.5 Z"/><text text-anchor="middle" pointer-events="none" font-size="8px" fill="#000000" x="79.984887787779" y="3" transform="rotate(180 79.984887787779 0)" font-family="sans-serif">beinclude</text></g><g class="relationship" transform="translate(235.3236747740989 205.02097835318884) rotate(449.6992719284283)"><path class="outline" fill="#A5ABB6" stroke="none" d="M 40 0.5 L 62.39112666038092 0.5 L 62.39112666038092 -0.5 L 40 -0.5 Z M 85.67628291038092 0.5 L 108.06740957076184 0.5 L 108.06740957076184 3.5 L 115.06740957076184 0 L 108.06740957076184 -3.5 L 108.06740957076184 -0.5 L 85.67628291038092 -0.5 Z"/><text text-anchor="middle" pointer-events="none" font-size="8px" fill="#000000" x="74.03370478538092" y="3" font-family="sans-serif">ping</text></g><g class="relationship" transform="translate(235.3236747740989 205.02097835318884) rotate(499.32646696501155)"><path class="outline" fill="#A5ABB6" stroke="none" d="M 40 0.5 L 57.09463502285388 0.5 L 57.09463502285388 -0.5 L 40 -0.5 Z M 80.37979127285388 0.5 L 97.47442629570776 0.5 L 97.47442629570776 3.5 L 104.47442629570776 0 L 97.47442629570776 -3.5 L 97.47442629570776 -0.5 L 80.37979127285388 -0.5 Z"/><text text-anchor="middle" pointer-events="none" font-size="8px" fill="#000000" x="68.73721314785388" y="3" transform="rotate(180 68.73721314785388 0)" font-family="sans-serif">ping</text></g><g class="relationship" transform="translate(538.1726262501945 209.3450290454158) rotate(236.28656135756495)"><path class="outline" fill="#A5ABB6" stroke="none" d="M 40 0.5 L 92.8382302523378 0.5 L 92.8382302523378 -0.5 L 40 -0.5 Z M 136.27182400233778 0.5 L 189.1100542546756 0.5 L 189.1100542546756 3.5 L 196.1100542546756 0 L 189.1100542546756 -3.5 L 189.1100542546756 -0.5 L 136.27182400233778 -0.5 Z"/><text text-anchor="middle" pointer-events="none" font-size="8px" fill="#000000" x="114.5550271273378" y="3" transform="rotate(180 114.5550271273378 0)" font-family="sans-serif">beinclude</text></g><g class="relationship" transform="translate(538.1726262501945 209.3450290454158) rotate(487.1078955902933)"><path class="outline" fill="#A5ABB6" stroke="none" d="M 40 0.5 L 97.00203437708412 0.5 L 97.00203437708412 -0.5 L 40 -0.5 Z M 120.28719062708412 0.5 L 177.28922500416823 0.5 L 177.28922500416823 3.5 L 184.28922500416823 0 L 177.28922500416823 -3.5 L 177.28922500416823 -0.5 L 120.28719062708412 -0.5 Z"/><text text-anchor="middle" pointer-events="none" font-size="8px" fill="#000000" x="108.64461250208412" y="3" transform="rotate(180 108.64461250208412 0)" font-family="sans-serif">ping</text></g><g class="relationship" transform="translate(413.7642502742336 213.0184406468589) rotate(268.0986108268515)"><path class="outline" fill="#A5ABB6" stroke="none" d="M 40 0.5 L 74.87601916616786 0.5 L 74.87601916616786 -0.5 L 40 -0.5 Z M 118.30961291616786 0.5 L 153.18563208233573 0.5 L 153.18563208233573 3.5 L 160.18563208233573 0 L 153.18563208233573 -3.5 L 153.18563208233573 -0.5 L 118.30961291616786 -0.5 Z"/><text text-anchor="middle" pointer-events="none" font-size="8px" fill="#000000" x="96.59281604116786" y="3" transform="rotate(180 96.59281604116786 0)" font-family="sans-serif">beinclude</text></g><g class="relationship" transform="translate(413.7642502742336 213.0184406468589) rotate(500.37659786785423)"><path class="outline" fill="#A5ABB6" stroke="none" d="M 40 0.5 L 100.16156073987021 0.5 L 100.16156073987021 -0.5 L 40 -0.5 Z M 123.44671698987021 0.5 L 183.60827772974042 0.5 L 183.60827772974042 3.5 L 190.60827772974042 0 L 183.60827772974042 -3.5 L 183.60827772974042 -0.5 L 123.44671698987021 -0.5 Z"/><text text-anchor="middle" pointer-events="none" font-size="8px" fill="#000000" x="111.80413886487021" y="3" transform="rotate(180 111.80413886487021 0)" font-family="sans-serif">ping</text></g><g class="relationship" transform="translate(413.7642502742336 213.0184406468589) rotate(453.5631367177985)"><path class="outline" fill="#A5ABB6" stroke="none" d="M 40 0.5 L 72.62579715346658 0.5 L 72.62579715346658 -0.5 L 40 -0.5 Z M 95.91095340346658 0.5 L 128.53675055693316 0.5 L 128.53675055693316 3.5 L 135.53675055693316 0 L 128.53675055693316 -3.5 L 128.53675055693316 -0.5 L 95.91095340346658 -0.5 Z"/><text text-anchor="middle" pointer-events="none" font-size="8px" fill="#000000" x="84.26837527846658" y="3" transform="rotate(180 84.26837527846658 0)" font-family="sans-serif">ping</text></g><g class="relationship" transform="translate(324.2410406897211 219.93876842732436) rotate(291.8211815746936)"><path class="outline" fill="#A5ABB6" stroke="none" d="M 40 0.5 L 86.26921619270006 0.5 L 86.26921619270006 -0.5 L 40 -0.5 Z M 129.70280994270007 0.5 L 175.9720261354001 0.5 L 175.9720261354001 3.5 L 182.9720261354001 0 L 175.9720261354001 -3.5 L 175.9720261354001 -0.5 L 129.70280994270007 -0.5 Z"/><text text-anchor="middle" pointer-events="none" font-size="8px" fill="#000000" x="107.98601306770006" y="3" font-family="sans-serif">beinclude</text></g><g class="relationship" transform="translate(324.2410406897211 219.93876842732436) rotate(482.1554493982544)"><path class="outline" fill="#A5ABB6" stroke="none" d="M 40 0.5 L 67.62749230626513 0.5 L 67.62749230626513 -0.5 L 40 -0.5 Z M 90.91264855626513 0.5 L 118.54014086253025 0.5 L 118.54014086253025 3.5 L 125.54014086253025 0 L 118.54014086253025 -3.5 L 118.54014086253025 -0.5 L 90.91264855626513 -0.5 Z"/><text text-anchor="middle" pointer-events="none" font-size="8px" fill="#000000" x="79.27007043126513" y="3" transform="rotate(180 79.27007043126513 0)" font-family="sans-serif">ping</text></g><g class="relationship" transform="translate(324.2410406897211 219.93876842732436) rotate(424.9594653053224)"><path class="outline" fill="#A5ABB6" stroke="none" d="M 40 0.5 L 77.7246977804978 0.5 L 77.7246977804978 -0.5 L 40 -0.5 Z M 101.0098540304978 0.5 L 138.7345518109956 0.5 L 138.7345518109956 3.5 L 145.7345518109956 0 L 138.7345518109956 -3.5 L 138.7345518109956 -0.5 L 101.0098540304978 -0.5 Z"/><text text-anchor="middle" pointer-events="none" font-size="8px" fill="#000000" x="89.3672759054978" y="3" font-family="sans-serif">ping</text></g><g class="relationship" transform="translate(-434.3431288955234 29.5562616792446) rotate(400.2392953916884)"><path class="outline" fill="#A5ABB6" stroke="none" d="M 40 0.5 L 110.3758524973185 0.5 L 110.3758524973185 -0.5 L 40 -0.5 Z M 153.8094462473185 0.5 L 224.185298744637 0.5 L 224.185298744637 3.5 L 231.185298744637 0 L 224.185298744637 -3.5 L 224.185298744637 -0.5 L 153.8094462473185 -0.5 Z"/><text text-anchor="middle" pointer-events="none" font-size="8px" fill="#000000" x="132.0926493723185" y="3" font-family="sans-serif">beinclude</text></g><g class="relationship" transform="translate(-434.3431288955234 29.5562616792446) rotate(330.21808722070034)"><path class="outline" fill="#A5ABB6" stroke="none" d="M 40 0.5 L 171.9691783822714 0.5 L 171.9691783822714 -0.5 L 40 -0.5 Z M 195.2543346322714 0.5 L 327.2235130145428 0.5 L 327.2235130145428 3.5 L 334.2235130145428 0 L 327.2235130145428 -3.5 L 327.2235130145428 -0.5 L 195.2543346322714 -0.5 Z"/><text text-anchor="middle" pointer-events="none" font-size="8px" fill="#000000" x="183.6117565072714" y="3" font-family="sans-serif">ping</text></g><g class="relationship" transform="translate(-434.3431288955234 29.5562616792446) rotate(294.87784860449744)"><path class="outline" fill="#A5ABB6" stroke="none" d="M 40 0.5 L 82.6054956190518 0.5 L 82.6054956190518 -0.5 L 40 -0.5 Z M 105.8906518690518 0.5 L 148.4961474881036 0.5 L 148.4961474881036 3.5 L 155.4961474881036 0 L 148.4961474881036 -3.5 L 148.4961474881036 -0.5 L 105.8906518690518 -0.5 Z"/><text text-anchor="middle" pointer-events="none" font-size="8px" fill="#000000" x="94.2480737440518" y="3" font-family="sans-serif">ping</text></g><g class="relationship" transform="translate(125.74914351121812 299.18191479709776) rotate(388.88673150491957)"><path class="outline" fill="#A5ABB6" stroke="none" d="M 40 0.5 L 47.89499709283864 0.5 L 47.89499709283864 -0.5 L 40 -0.5 Z M 71.18015334283865 0.5 L 79.07515043567729 0.5 L 79.07515043567729 3.5 L 86.07515043567729 0 L 79.07515043567729 -3.5 L 79.07515043567729 -0.5 L 71.18015334283865 -0.5 Z"/><text text-anchor="middle" pointer-events="none" font-size="8px" fill="#000000" x="59.53757521783864" y="3" font-family="sans-serif">ping</text></g><g class="relationship" transform="translate(-352.10081150708044 -147.79915806672471) rotate(357.98791928577816)"><path class="outline" fill="#A5ABB6" stroke="none" d="M 40 0.5 L 106.20954853167339 0.5 L 106.20954853167339 -0.5 L 40 -0.5 Z M 129.4947047816734 0.5 L 195.70425331334678 0.5 L 195.70425331334678 3.5 L 202.70425331334678 0 L 195.70425331334678 -3.5 L 195.70425331334678 -0.5 L 129.4947047816734 -0.5 Z"/><text text-anchor="middle" pointer-events="none" font-size="8px" fill="#000000" x="117.85212665667339" y="3" font-family="sans-serif">ping</text></g><g class="relationship" transform="translate(266.08316572357637 -131.3767812016618) rotate(467.80658382115166)"><path class="outline" fill="#A5ABB6" stroke="none" d="M 40 0.5 L 74.76184230427128 0.5 L 74.76184230427128 -0.5 L 40 -0.5 Z M 98.04699855427128 0.5 L 132.80884085854257 0.5 L 132.80884085854257 3.5 L 139.80884085854257 0 L 132.80884085854257 -3.5 L 132.80884085854257 -0.5 L 98.04699855427128 -0.5 Z"/><text text-anchor="middle" pointer-events="none" font-size="8px" fill="#000000" x="86.40442042927128" y="3" transform="rotate(180 86.40442042927128 0)" font-family="sans-serif">ping</text></g><g class="relationship" transform="translate(266.08316572357637 -131.3767812016618) rotate(405.65869967961794)"><path class="outline" fill="#A5ABB6" stroke="none" d="M 40 0.5 L 85.7536794473781 0.5 L 85.7536794473781 -0.5 L 40 -0.5 Z M 109.0388356973781 0.5 L 154.7925151447562 0.5 L 154.7925151447562 3.5 L 161.7925151447562 0 L 154.7925151447562 -3.5 L 154.7925151447562 -0.5 L 109.0388356973781 -0.5 Z"/><text text-anchor="middle" pointer-events="none" font-size="8px" fill="#000000" x="97.3962575723781" y="3" font-family="sans-serif">ping</text></g><g class="relationship" transform="translate(-109.54619839747568 -156.3205567570307) rotate(360.3270590002762)"><path class="outline" fill="#A5ABB6" stroke="none" d="M 40 0.5 L 77.26491333174891 0.5 L 77.26491333174891 -0.5 L 40 -0.5 Z M 100.55006958174891 0.5 L 137.81498291349783 0.5 L 137.81498291349783 3.5 L 144.81498291349783 0 L 137.81498291349783 -3.5 L 137.81498291349783 -0.5 L 100.55006958174891 -0.5 Z"/><text text-anchor="middle" pointer-events="none" font-size="8px" fill="#000000" x="88.90749145674891" y="3" font-family="sans-serif">ping</text></g><g class="relationship" transform="translate(-161.18092777479802 45.13630384195119) rotate(472.5132686163259)"><path class="outline" fill="#A5ABB6" stroke="none" d="M 40 0.5 L 61.16671913458626 0.5 L 61.16671913458626 -0.5 L 40 -0.5 Z M 104.60031288458626 0.5 L 125.76703201917252 0.5 L 125.76703201917252 3.5 L 132.76703201917252 0 L 125.76703201917252 -3.5 L 125.76703201917252 -0.5 L 104.60031288458626 -0.5 Z"/><text text-anchor="middle" pointer-events="none" font-size="8px" fill="#000000" x="82.88351600958626" y="3" transform="rotate(180 82.88351600958626 0)" font-family="sans-serif">beinclude</text></g><g class="relationship" transform="translate(-161.18092777479802 45.13630384195119) rotate(284.37582346616824)"><path class="outline" fill="#A5ABB6" stroke="none" d="M 40 0.5 L 88.8418100785507 0.5 L 88.8418100785507 -0.5 L 40 -0.5 Z M 112.1269663285507 0.5 L 160.9687764071014 0.5 L 160.9687764071014 3.5 L 167.9687764071014 0 L 160.9687764071014 -3.5 L 160.9687764071014 -0.5 L 112.1269663285507 -0.5 Z"/><text text-anchor="middle" pointer-events="none" font-size="8px" fill="#000000" x="100.4843882035507" y="3" font-family="sans-serif">ping</text></g><g class="relationship" transform="translate(-161.18092777479802 45.13630384195119) rotate(225.30085047075443)"><path class="outline" fill="#A5ABB6" stroke="none" d="M 40 0.5 L 120.57265173725824 0.5 L 120.57265173725824 -0.5 L 40 -0.5 Z M 143.85780798725824 0.5 L 224.43045972451648 0.5 L 224.43045972451648 3.5 L 231.43045972451648 0 L 224.43045972451648 -3.5 L 224.43045972451648 -0.5 L 143.85780798725824 -0.5 Z"/><text text-anchor="middle" pointer-events="none" font-size="8px" fill="#000000" x="132.21522986225824" y="3" transform="rotate(180 132.21522986225824 0)" font-family="sans-serif">ping</text></g><g class="relationship" transform="translate(75.26577350083156 -155.2655911766474) rotate(367.13584734625454)"><path class="outline" fill="#A5ABB6" stroke="none" d="M 40 0.5 L 81.01088309287532 0.5 L 81.01088309287532 -0.5 L 40 -0.5 Z M 104.29603934287532 0.5 L 145.30692243575064 0.5 L 145.30692243575064 3.5 L 152.30692243575064 0 L 145.30692243575064 -3.5 L 145.30692243575064 -0.5 L 104.29603934287532 -0.5 Z"/><text text-anchor="middle" pointer-events="none" font-size="8px" fill="#000000" x="92.65346121787532" y="3" font-family="sans-serif">ping</text></g><g class="relationship" transform="translate(-91.20635649599058 288.0702787751443) rotate(211.47394323585343)"><path class="outline" fill="#A5ABB6" stroke="none" d="M 40 0.5 L 64.66172145666313 0.5 L 64.66172145666313 -0.5 L 40 -0.5 Z M 87.94687770666313 0.5 L 112.60859916332626 0.5 L 112.60859916332626 3.5 L 119.60859916332626 0 L 112.60859916332626 -3.5 L 112.60859916332626 -0.5 L 87.94687770666313 -0.5 Z"/><text text-anchor="middle" pointer-events="none" font-size="8px" fill="#000000" x="76.30429958166313" y="3" transform="rotate(180 76.30429958166313 0)" font-family="sans-serif">ping</text></g><g class="relationship" transform="translate(402.8549237526776 388.2158646888038) rotate(189.57710624807402)"><path class="outline" fill="#A5ABB6" stroke="none" d="M 40 0.5 L 69.39432253914792 0.5 L 69.39432253914792 -0.5 L 40 -0.5 Z M 92.67947878914792 0.5 L 122.07380132829584 0.5 L 122.07380132829584 3.5 L 129.07380132829584 0 L 122.07380132829584 -3.5 L 122.07380132829584 -0.5 L 92.67947878914792 -0.5 Z"/><text text-anchor="middle" pointer-events="none" font-size="8px" fill="#000000" x="81.03690066414792" y="3" transform="rotate(180 81.03690066414792 0)" font-family="sans-serif">ping</text></g><g class="relationship" transform="translate(-52.08527073686412 -18.791955367416378) rotate(488.09661546977316)"><path class="outline" fill="#A5ABB6" stroke="none" d="M 40 0.5 L 116.80160997326212 0.5 L 116.80160997326212 -0.5 L 40 -0.5 Z M 160.23520372326212 0.5 L 237.03681369652423 0.5 L 237.03681369652423 3.5 L 244.03681369652423 0 L 237.03681369652423 -3.5 L 237.03681369652423 -0.5 L 160.23520372326212 -0.5 Z"/><text text-anchor="middle" pointer-events="none" font-size="8px" fill="#000000" x="138.51840684826212" y="3" transform="rotate(180 138.51840684826212 0)" font-family="sans-serif">beinclude</text></g><g class="relationship" transform="translate(-52.08527073686412 -18.791955367416378) rotate(247.3243036696026)"><path class="outline" fill="#A5ABB6" stroke="none" d="M 40 0.5 L 59.382374756235464 0.5 L 59.382374756235464 -0.5 L 40 -0.5 Z M 82.66753100623546 0.5 L 102.04990576247093 0.5 L 102.04990576247093 3.5 L 109.04990576247093 0 L 102.04990576247093 -3.5 L 102.04990576247093 -0.5 L 82.66753100623546 -0.5 Z"/><text text-anchor="middle" pointer-events="none" font-size="8px" fill="#000000" x="71.02495288123546" y="3" transform="rotate(180 71.02495288123546 0)" font-family="sans-serif">ping</text></g><g class="relationship" transform="translate(-52.08527073686412 -18.791955367416378) rotate(203.2677886480041)"><path class="outline" fill="#A5ABB6" stroke="none" d="M 40 0.5 L 148.14565097614016 0.5 L 148.14565097614016 -0.5 L 40 -0.5 Z M 171.43080722614016 0.5 L 279.5764582022803 0.5 L 279.5764582022803 3.5 L 286.5764582022803 0 L 279.5764582022803 -3.5 L 279.5764582022803 -0.5 L 171.43080722614016 -0.5 Z"/><text text-anchor="middle" pointer-events="none" font-size="8px" fill="#000000" x="159.78822910114016" y="3" transform="rotate(180 159.78822910114016 0)" font-family="sans-serif">ping</text></g><g class="relationship" transform="translate(-284.7830131198815 37.74900120872795) rotate(431.01488060219395)"><path class="outline" fill="#A5ABB6" stroke="none" d="M 40 0.5 L 63.08024463212212 0.5 L 63.08024463212212 -0.5 L 40 -0.5 Z M 106.51383838212212 0.5 L 129.59408301424423 0.5 L 129.59408301424423 3.5 L 136.59408301424423 0 L 129.59408301424423 -3.5 L 129.59408301424423 -0.5 L 106.51383838212212 -0.5 Z"/><text text-anchor="middle" pointer-events="none" font-size="8px" fill="#000000" x="84.79704150712212" y="3" font-family="sans-serif">beinclude</text></g><g class="relationship" transform="translate(-284.7830131198815 37.74900120872795) rotate(312.08073593356767)"><path class="outline" fill="#A5ABB6" stroke="none" d="M 40 0.5 L 115.59660361012459 0.5 L 115.59660361012459 -0.5 L 40 -0.5 Z M 138.8817598601246 0.5 L 214.47836347024918 0.5 L 214.47836347024918 3.5 L 221.47836347024918 0 L 214.47836347024918 -3.5 L 214.47836347024918 -0.5 L 138.8817598601246 -0.5 Z"/><text text-anchor="middle" pointer-events="none" font-size="8px" fill="#000000" x="127.23918173512459" y="3" font-family="sans-serif">ping</text></g><g class="relationship" transform="translate(-284.7830131198815 37.74900120872795) rotate(250.05897570276966)"><path class="outline" fill="#A5ABB6" stroke="none" d="M 40 0.5 L 83.54861371881186 0.5 L 83.54861371881186 -0.5 L 40 -0.5 Z M 106.83376996881186 0.5 L 150.38238368762373 0.5 L 150.38238368762373 3.5 L 157.38238368762373 0 L 150.38238368762373 -3.5 L 150.38238368762373 -0.5 L 106.83376996881186 -0.5 Z"/><text text-anchor="middle" pointer-events="none" font-size="8px" fill="#000000" x="95.19119184381186" y="3" transform="rotate(180 95.19119184381186 0)" font-family="sans-serif">ping</text></g></g><g class="layer nodes"><g class="node" transform="translate(236.13757257470493,360.08625196838796)"><circle class="outline" cx="0" cy="0" r="40" fill="#F79767" stroke="#f36924" stroke-width="2px"/><text text-anchor="middle" pointer-events="none" font-family="sans-serif" dy="2.5" font-size="40" fill="#FFFFFF"/><text text-anchor="middle" pointer-events="none" y="5" font-size="10px" fill="#FFFFFF" font-family="sans-serif"> 10.255.254.1</text></g><g class="node" transform="translate(146.5118768907668,191.48264143841078)"><circle class="outline" cx="0" cy="0" r="40" fill="#C990C0" stroke="#b261a5" stroke-width="2px"/><text text-anchor="middle" pointer-events="none" font-family="sans-serif" dy="2.5" font-size="40" fill="#FFFFFF"/><text text-anchor="middle" pointer-events="none" y="5" font-size="10px" fill="#FFFFFF" font-family="sans-serif"> 10.19.117.216</text></g><g class="node" transform="translate(64.62140530740392,365.2028158617615)"><circle class="outline" cx="0" cy="0" r="40" fill="#F79767" stroke="#f36924" stroke-width="2px"/><text text-anchor="middle" pointer-events="none" font-family="sans-serif" dy="2.5" font-size="40" fill="#FFFFFF"/><text text-anchor="middle" pointer-events="none" y="5" font-size="10px" fill="#FFFFFF" font-family="sans-serif"> 10.80.128.150</text></g><g class="node" transform="translate(235.3236747740989,205.02097835318884)"><circle class="outline" cx="0" cy="0" r="40" fill="#C990C0" stroke="#b261a5" stroke-width="2px"/><text text-anchor="middle" pointer-events="none" font-family="sans-serif" dy="2.5" font-size="40" fill="#FFFFFF"/><text text-anchor="middle" pointer-events="none" y="5" font-size="10px" fill="#FFFFFF" font-family="sans-serif"> 10.19.117.216</text></g><g class="node" transform="translate(538.1726262501945,209.3450290454158)"><circle class="outline" cx="0" cy="0" r="40" fill="#C990C0" stroke="#b261a5" stroke-width="2px"/><text text-anchor="middle" pointer-events="none" font-family="sans-serif" dy="2.5" font-size="40" fill="#FFFFFF"/><text text-anchor="middle" pointer-events="none" y="5" font-size="10px" fill="#FFFFFF" font-family="sans-serif"> 10.203.146.24</text></g><g class="node" transform="translate(413.7642502742336,213.0184406468589)"><circle class="outline" cx="0" cy="0" r="40" fill="#C990C0" stroke="#b261a5" stroke-width="2px"/><text text-anchor="middle" pointer-events="none" font-family="sans-serif" dy="2.5" font-size="40" fill="#FFFFFF"/><text text-anchor="middle" pointer-events="none" y="5" font-size="10px" fill="#FFFFFF" font-family="sans-serif"> 10.203.146.24</text></g><g class="node" transform="translate(324.2410406897211,219.93876842732436)"><circle class="outline" cx="0" cy="0" r="40" fill="#C990C0" stroke="#b261a5" stroke-width="2px"/><text text-anchor="middle" pointer-events="none" font-family="sans-serif" dy="2.5" font-size="40" fill="#FFFFFF"/><text text-anchor="middle" pointer-events="none" y="5" font-size="10px" fill="#FFFFFF" font-family="sans-serif"> 10.203.146.24</text></g><g class="node" transform="translate(-434.3431288955234,29.5562616792446)"><circle class="outline" cx="0" cy="0" r="40" fill="#C990C0" stroke="#b261a5" stroke-width="2px"/><text text-anchor="middle" pointer-events="none" font-family="sans-serif" dy="2.5" font-size="40" fill="#FFFFFF"/><text text-anchor="middle" pointer-events="none" y="5" font-size="10px" fill="#FFFFFF" font-family="sans-serif"> 10.208.112.246</text></g><g class="node" transform="translate(125.74914351121812,299.18191479709776)"><circle class="outline" cx="0" cy="0" r="40" fill="#F79767" stroke="#f36924" stroke-width="2px"/><text text-anchor="middle" pointer-events="none" font-family="sans-serif" dy="2.5" font-size="40" fill="#FFFFFF"/><text text-anchor="middle" pointer-events="none" y="5" font-size="10px" fill="#FFFFFF" font-family="sans-serif"> 10.255.254.129</text></g><g class="node" transform="translate(-352.10081150708044,-147.79915806672471)"><circle class="outline" cx="0" cy="0" r="40" fill="#F79767" stroke="#f36924" stroke-width="2px"/><text text-anchor="middle" pointer-events="none" font-family="sans-serif" dy="2.5" font-size="40" fill="#FFFFFF"/><text text-anchor="middle" pointer-events="none" y="5" font-size="10px" fill="#FFFFFF" font-family="sans-serif"> 10.208.64.1</text></g><g class="node" transform="translate(266.08316572357637,-131.3767812016618)"><circle class="outline" cx="0" cy="0" r="40" fill="#F79767" stroke="#f36924" stroke-width="2px"/><text text-anchor="middle" pointer-events="none" font-family="sans-serif" dy="2.5" font-size="40" fill="#FFFFFF"/><text text-anchor="middle" pointer-events="none" y="5" font-size="10px" fill="#FFFFFF" font-family="sans-serif"> 10.255.254.2</text></g><g class="node" transform="translate(-109.54619839747568,-156.3205567570307)"><circle class="outline" cx="0" cy="0" r="40" fill="#F79767" stroke="#f36924" stroke-width="2px"/><text text-anchor="middle" pointer-events="none" font-family="sans-serif" dy="2.5" font-size="40" fill="#FFFFFF"/><text text-anchor="middle" pointer-events="none" y="5" font-size="10px" fill="#FFFFFF" font-family="sans-serif"> 10.80.128.141</text></g><g class="node" transform="translate(-161.18092777479802,45.13630384195119)"><circle class="outline" cx="0" cy="0" r="40" fill="#C990C0" stroke="#b261a5" stroke-width="2px"/><text text-anchor="middle" pointer-events="none" font-family="sans-serif" dy="2.5" font-size="40" fill="#FFFFFF"/><text text-anchor="middle" pointer-events="none" y="5" font-size="10px" fill="#FFFFFF" font-family="sans-serif"> 10.208.112.246</text></g><g class="node" transform="translate(-227.33297083641594,204.73691333792908)"><circle class="outline" cx="0" cy="0" r="40" fill="#FFE081" stroke="#9AA1AC" stroke-width="2px"/><text text-anchor="middle" pointer-events="none" font-family="sans-serif" dy="2.5" font-size="40" fill="#FFFFFF"/><text text-anchor="middle" pointer-events="none" y="5" font-size="10px" fill="#FFFFFF" font-family="sans-serif"> 10.208.0.0/16</text></g><g class="node" transform="translate(211.09677501600748,39.81818393413672)"><circle class="outline" cx="0" cy="0" r="40" fill="#FFE081" stroke="#9AA1AC" stroke-width="2px"/><text text-anchor="middle" pointer-events="none" font-family="sans-serif" dy="2.5" font-size="40" fill="#FFFFFF"/><text text-anchor="middle" pointer-events="none" y="5" font-size="10px" fill="#FFFFFF" font-family="sans-serif"> 10.19.0.0/16</text></g><g class="node" transform="translate(75.26577350083156,-155.2655911766474)"><circle class="outline" cx="0" cy="0" r="40" fill="#F79767" stroke="#f36924" stroke-width="2px"/><text text-anchor="middle" pointer-events="none" font-family="sans-serif" dy="2.5" font-size="40" fill="#FFFFFF"/><text text-anchor="middle" pointer-events="none" y="5" font-size="10px" fill="#FFFFFF" font-family="sans-serif"> 10.80.128.149</text></g><g class="node" transform="translate(-91.20635649599058,288.0702787751443)"><circle class="outline" cx="0" cy="0" r="40" fill="#F79767" stroke="#f36924" stroke-width="2px"/><text text-anchor="middle" pointer-events="none" font-family="sans-serif" dy="2.5" font-size="40" fill="#FFFFFF"/><text text-anchor="middle" pointer-events="none" y="5" font-size="10px" fill="#FFFFFF" font-family="sans-serif"> 10.80.128.142</text></g><g class="node" transform="translate(402.8549237526776,388.2158646888038)"><circle class="outline" cx="0" cy="0" r="40" fill="#F79767" stroke="#f36924" stroke-width="2px"/><text text-anchor="middle" pointer-events="none" font-family="sans-serif" dy="2.5" font-size="40" fill="#FFFFFF"/><text text-anchor="middle" pointer-events="none" y="5" font-size="10px" fill="#FFFFFF" font-family="sans-serif"> 10.203.128.1</text></g><g class="node" transform="translate(-52.08527073686412,-18.791955367416378)"><circle class="outline" cx="0" cy="0" r="40" fill="#C990C0" stroke="#b261a5" stroke-width="2px"/><text text-anchor="middle" pointer-events="none" font-family="sans-serif" dy="2.5" font-size="40" fill="#FFFFFF"/><text text-anchor="middle" pointer-events="none" y="5" font-size="10px" fill="#FFFFFF" font-family="sans-serif"> 10.208.112.246</text></g><g class="node" transform="translate(-284.7830131198815,37.74900120872795)"><circle class="outline" cx="0" cy="0" r="40" fill="#C990C0" stroke="#b261a5" stroke-width="2px"/><text text-anchor="middle" pointer-events="none" font-family="sans-serif" dy="2.5" font-size="40" fill="#FFFFFF"/><text text-anchor="middle" pointer-events="none" y="5" font-size="10px" fill="#FFFFFF" font-family="sans-serif"> 10.208.112.246</text></g><g class="node" transform="translate(407.1222089722895,12.943028415501601)"><circle class="outline" cx="0" cy="0" r="40" fill="#FFE081" stroke="#9AA1AC" stroke-width="2px"/><text text-anchor="middle" pointer-events="none" font-family="sans-serif" dy="2.5" font-size="40" fill="#FFFFFF"/><text text-anchor="middle" pointer-events="none" y="5" font-size="10px" fill="#FFFFFF" font-family="sans-serif"> 10.203.0.0/16</text></g></g></svg>